<svg xmlns="http://www.w3.org/2000/svg" width="375" height="162" viewBox="0 0 375 162">
  <g fill="none" fill-rule="evenodd">
    <rect width="375" height="162" fill="#222222" rx="2"/>
    <rect width="42" height="42" x="24" y="85" fill="#FFFFFF" fill-opacity=".1" rx="4.468"/>
    <rect width="375" height="64" fill="none"/>
    <rect width="375" height="64" fill="none"/>
    <g transform="translate(24)">
      <rect width="93" height="64" fill="none"/>
      <g fill="#FFFFFF" transform="translate(10 8)">
        <path d="M19.8662109 21.3115234C17.7714844 21.3115234 16.1171875 20.2695312 15.1503906 18.3574219 14.4628906 17.1435547 14.1191406 15.5429688 14.1191406 13.5771484 14.1191406 8.30273438 16.2890625 5.17675781 19.9736328 5.17675781 22.5410156 5.17675781 24.4853516 6.72363281 24.9257812 9.140625L23.421875 9.140625C23.0351562 7.52929688 21.6816406 6.49804688 19.9521484 6.49804688 17.1699219 6.49804688 15.5800781 9.09765625 15.5478516 13.6953125L15.6767578 13.6953125C16.3535156 11.9550781 18.0615234 10.8378906 20.0917969 10.8378906 23.0351562 10.8378906 25.2050781 13.0292969 25.2050781 15.9941406 25.2050781 19.0771484 22.9599609 21.3115234 19.8662109 21.3115234zM19.8447266 20.0117188C22.046875 20.0117188 23.7226562 18.2929688 23.7226562 16.0478516 23.7226562 13.7597656 22.1005859 12.1162109 19.8554688 12.1162109 17.6425781 12.1162109 15.9345703 13.7705078 15.9345703 15.9404297 15.9345703 18.25 17.6318359 20.0117188 19.8447266 20.0117188zM33.4550781 21.3222656C30.0068359 21.3222656 27.9765625 18.3251953 27.9765625 13.2441406 27.9765625 8.1953125 30.0283203 5.17675781 33.4550781 5.17675781 36.8603516 5.17675781 38.9013672 8.20605469 38.9013672 13.265625 38.9013672 18.3359375 36.8818359 21.3222656 33.4550781 21.3222656zM33.4550781 20.0332031C35.96875 20.0332031 37.4296875 17.5410156 37.4296875 13.2441406 37.4296875 8.96875 35.9580078 6.4765625 33.4550781 6.4765625 30.9414063 6.4765625 29.4589844 8.99023438 29.4589844 13.2441406 29.4589844 17.5410156 30.9306641 20.0332031 33.4550781 20.0332031zM42.1074219 21L42.1074219 17.9482422 45.2275391 17.9482422 45.2275391 17.1669922 42.1074219 17.1669922 42.1074219 14.7451172 45.5058594 14.7451172 45.5058594 13.9541016 41.2285156 13.9541016 41.2285156 21 42.1074219 21zM47.4511719 13.9541016L50.1123047 13.9541016C51.4453125 13.9541016 52.3681641 14.8916016 52.3681641 16.234375 52.3681641 17.5527344 51.4257812 18.4853516 50.1025391 18.4853516L48.3300781 18.4853516 48.3300781 21 47.4511719 21 47.4511719 13.9541016zM48.3300781 14.7353516L48.3300781 17.7041016 49.8828125 17.7041016C50.8837891 17.7041016 51.4648438 17.1669922 51.4648438 16.234375 51.4648438 15.2675781 50.9033203 14.7353516 49.8828125 14.7353516L48.3300781 14.7353516zM53.9667969 19.1591797C54.0595703 20.375 55.0898438 21.1660156 56.5839844 21.1660156 58.1953125 21.1660156 59.2158203 20.3408203 59.2158203 19.046875 59.2158203 18.0117188 58.6298828 17.4453125 57.1699219 17.0791016L56.4326172 16.8837891C55.4609375 16.6347656 55.0751953 16.3173828 55.0751953 15.765625 55.0751953 15.0527344 55.6953125 14.5839844 56.6328125 14.5839844 57.5117188 14.5839844 58.1074219 15.0136719 58.2294922 15.7363281L59.1132812 15.7363281C59.0400391 14.5986328 58.0244141 13.7880859 56.6621094 13.7880859 55.1728516 13.7880859 54.171875 14.5986328 54.171875 15.7949219 54.171875 16.7958984 54.7236328 17.3720703 55.9980469 17.6943359L56.9013672 17.9287109C57.8730469 18.1728516 58.3125 18.5537109 58.3125 19.1542969 58.3125 19.8525391 57.6142578 20.3652344 56.6669922 20.3652344 55.6660156 20.3652344 54.9628906 19.8964844 54.8554688 19.1591797L53.9667969 19.1591797zM8.7109375 39L8.7109375 30.5449219 6.94140625 30.5449219 6.94140625 33.9550781 3.1328125 33.9550781 3.1328125 30.5449219 1.36328125 30.5449219 1.36328125 39 3.1328125 39 3.1328125 35.4667969 6.94140625 35.4667969 6.94140625 39 8.7109375 39zM12.7617188 30.5390625L16.0898438 30.5390625C18.6035156 30.5390625 20.0566406 32.0625 20.0566406 34.7109375 20.0566406 37.4589844 18.6210938 39 16.0898438 39L12.7617188 39 12.7617188 30.5390625zM14.53125 32.0507812L14.53125 37.4882812 15.8085938 37.4882812C17.3730469 37.4882812 18.2519531 36.5273438 18.2519531 34.7402344 18.2519531 33.0292969 17.34375 32.0507812 15.8085938 32.0507812L14.53125 32.0507812zM30.4609375 39L30.4609375 33.3457031 30.5546875 33.3457031 32.7109375 38.5136719 33.8886719 38.5136719 36.0390625 33.3457031 36.1328125 33.3457031 36.1328125 39 37.7734375 39 37.7734375 30.5449219 35.6933594 30.5449219 33.3496094 36.2285156 33.2441406 36.2285156 30.90625 30.5449219 28.8203125 30.5449219 28.8203125 39 30.4609375 39zM45.5214844 30.328125C48.0175781 30.328125 49.5820312 32.0332031 49.5820312 34.7695312 49.5820312 37.5117188 48.0234375 39.2167969 45.5214844 39.2167969 43.0136719 39.2167969 41.4492188 37.5117188 41.4492188 34.7695312 41.4492188 32.0273438 43.0371094 30.328125 45.5214844 30.328125zM45.5214844 31.8808594C44.1503906 31.8808594 43.2597656 33 43.2597656 34.7695312 43.2597656 36.5332031 44.1328125 37.6640625 45.5214844 37.6640625 46.8984375 37.6640625 47.7773438 36.5332031 47.7773438 34.7695312 47.7773438 33 46.8984375 31.8808594 45.5214844 31.8808594zM53.2578125 30.5390625L56.5859375 30.5390625C59.0996094 30.5390625 60.5527344 32.0625 60.5527344 34.7109375 60.5527344 37.4589844 59.1171875 39 56.5859375 39L53.2578125 39 53.2578125 30.5390625zM55.0273438 32.0507812L55.0273438 37.4882812 56.3046875 37.4882812C57.8691406 37.4882812 58.7480469 36.5273438 58.7480469 34.7402344 58.7480469 33.0292969 57.8398438 32.0507812 56.3046875 32.0507812L55.0273438 32.0507812zM69.8242188 37.4882812L65.9921875 37.4882812 65.9921875 35.4316406 69.6074219 35.4316406 69.6074219 34.03125 65.9921875 34.03125 65.9921875 32.0566406 69.8242188 32.0566406 69.8242188 30.5449219 64.2226562 30.5449219 64.2226562 39 69.8242188 39 69.8242188 37.4882812z"/>
      </g>
    </g>
    <g transform="translate(141)">
      <rect width="93" height="64" fill="none"/>
      <g fill="#FFFFFF" transform="translate(8 8)">
        <path d="M15.6733398 21L17.1342773 21 17.1342773 5.47753906 15.6733398 5.47753906C15.0395508 5.85351562 11.8276367 8.12011719 11.4946289 8.34570312L11.4946289 9.90332031C12.0209961 9.55957031 15.1469727 7.3359375 15.5336914 7.11035156L15.6733398 7.11035156 15.6733398 21zM21.581543 9.77441406L21.581543 9.78515625 23.0102539 9.78515625 23.0102539 9.77441406C23.0317383 7.81933594 24.4174805 6.46582031 26.4155273 6.46582031 28.3168945 6.46582031 29.7885742 7.80859375 29.7885742 9.53808594 29.7885742 10.8701172 29.2407227 11.7939453 27.081543 14.1142578L21.6674805 19.96875 21.6674805 21 31.6469727 21 31.6469727 19.6679688 23.7836914 19.6679688 23.7836914 19.5390625 27.9731445 15.0703125C30.519043 12.3525391 31.2602539 11.0957031 31.2602539 9.484375 31.2602539 7.04589844 29.1762695 5.17675781 26.4477539 5.17675781 23.644043 5.17675781 21.6030273 7.09960938 21.581543 9.77441406zM39.9077148 21.3222656C36.4594727 21.3222656 34.4291992 18.3251953 34.4291992 13.2441406 34.4291992 8.1953125 36.480957 5.17675781 39.9077148 5.17675781 43.3129883 5.17675781 45.3540039 8.20605469 45.3540039 13.265625 45.3540039 18.3359375 43.3344727 21.3222656 39.9077148 21.3222656zM39.9077148 20.0332031C42.4213867 20.0332031 43.8823242 17.5410156 43.8823242 13.2441406 43.8823242 8.96875 42.4106445 6.4765625 39.9077148 6.4765625 37.394043 6.4765625 35.9116211 8.99023438 35.9116211 13.2441406 35.9116211 17.5410156 37.3833008 20.0332031 39.9077148 20.0332031zM48.5600586 21L48.5600586 17.9482422 51.6801758 17.9482422 51.6801758 17.1669922 48.5600586 17.1669922 48.5600586 14.7451172 51.9584961 14.7451172 51.9584961 13.9541016 47.6811523 13.9541016 47.6811523 21 48.5600586 21zM53.9038086 13.9541016L56.5649414 13.9541016C57.8979492 13.9541016 58.8208008 14.8916016 58.8208008 16.234375 58.8208008 17.5527344 57.878418 18.4853516 56.5551758 18.4853516L54.7827148 18.4853516 54.7827148 21 53.9038086 21 53.9038086 13.9541016zM54.7827148 14.7353516L54.7827148 17.7041016 56.3354492 17.7041016C57.3364258 17.7041016 57.9174805 17.1669922 57.9174805 16.234375 57.9174805 15.2675781 57.355957 14.7353516 56.3354492 14.7353516L54.7827148 14.7353516zM60.4194336 19.1591797C60.512207 20.375 61.5424805 21.1660156 63.0366211 21.1660156 64.6479492 21.1660156 65.668457 20.3408203 65.668457 19.046875 65.668457 18.0117188 65.0825195 17.4453125 63.6225586 17.0791016L62.8852539 16.8837891C61.9135742 16.6347656 61.527832 16.3173828 61.527832 15.765625 61.527832 15.0527344 62.1479492 14.5839844 63.0854492 14.5839844 63.9643555 14.5839844 64.5600586 15.0136719 64.6821289 15.7363281L65.565918 15.7363281C65.4926758 14.5986328 64.4770508 13.7880859 63.1147461 13.7880859 61.6254883 13.7880859 60.6245117 14.5986328 60.6245117 15.7949219 60.6245117 16.7958984 61.1762695 17.3720703 62.4506836 17.6943359L63.3540039 17.9287109C64.3256836 18.1728516 64.7651367 18.5537109 64.7651367 19.1542969 64.7651367 19.8525391 64.0668945 20.3652344 63.1196289 20.3652344 62.1186523 20.3652344 61.4155273 19.8964844 61.3081055 19.1591797L60.4194336 19.1591797zM1.16894531 36.6503906C1.23339844 38.2265625 2.54003906 39.2167969 4.55566406 39.2167969 6.67675781 39.2167969 7.98339844 38.1738281 7.98339844 36.46875 7.98339844 35.15625 7.25097656 34.4238281 5.55175781 34.0664062L4.53222656 33.8496094C3.54199219 33.6386719 3.13769531 33.3398438 3.13769531 32.8183594 3.13769531 32.1738281 3.72363281 31.7636719 4.60839844 31.7636719 5.46386719 31.7636719 6.08496094 32.2089844 6.16699219 32.8769531L7.83105469 32.8769531C7.77832031 31.3710938 6.45996094 30.328125 4.59667969 30.328125 2.64550781 30.328125 1.36230469 31.3769531 1.36230469 32.9707031 1.36230469 34.2597656 2.11816406 35.0625 3.65917969 35.3847656L4.76074219 35.6191406C5.79785156 35.8417969 6.21972656 36.1523438 6.21972656 36.6914062 6.21972656 37.3300781 5.56933594 37.7753906 4.64941406 37.7753906 3.65332031 37.7753906 2.96191406 37.3359375 2.87988281 36.6503906L1.16894531 36.6503906zM17.1845703 37.4589844L13.4228516 37.4589844 13.4228516 30.5449219 11.6533203 30.5449219 11.6533203 39 17.1845703 39 17.1845703 37.4589844zM24.2529297 30.328125C26.7490234 30.328125 28.3134766 32.0332031 28.3134766 34.7695312 28.3134766 37.5117188 26.7548828 39.2167969 24.2529297 39.2167969 21.7451172 39.2167969 20.1806641 37.5117188 20.1806641 34.7695312 20.1806641 32.0273438 21.7685547 30.328125 24.2529297 30.328125zM24.2529297 31.8808594C22.8818359 31.8808594 21.9912109 33 21.9912109 34.7695312 21.9912109 36.5332031 22.8642578 37.6640625 24.2529297 37.6640625 25.6298828 37.6640625 26.5087891 36.5332031 26.5087891 34.7695312 26.5087891 33 25.6298828 31.8808594 24.2529297 31.8808594zM36.6767578 33.4042969L36.7705078 33.4042969 38.3701172 39 40.0283203 39 42.2724609 30.5449219 40.4443359 30.5449219 39.1376953 36.5039062 39.0439453 36.5039062 37.4736328 30.5449219 35.9794922 30.5449219 34.4384766 36.5039062 34.3447266 36.5039062 33.0263672 30.5449219 31.1865234 30.5449219 33.4248047 39 35.0947266 39 36.6767578 33.4042969zM49.0595703 36.3867188L49.0595703 34.7871094 45.2099609 34.7871094 45.2099609 36.3867188 49.0595703 36.3867188zM54.7041016 39L54.7041016 33.3457031 54.7978516 33.3457031 56.9541016 38.5136719 58.1318359 38.5136719 60.2822266 33.3457031 60.3759766 33.3457031 60.3759766 39 62.0166016 39 62.0166016 30.5449219 59.9365234 30.5449219 57.5927734 36.2285156 57.4873047 36.2285156 55.1494141 30.5449219 53.0634766 30.5449219 53.0634766 39 54.7041016 39zM69.7646484 30.328125C72.2607422 30.328125 73.8251953 32.0332031 73.8251953 34.7695312 73.8251953 37.5117188 72.2666016 39.2167969 69.7646484 39.2167969 67.2568359 39.2167969 65.6923828 37.5117188 65.6923828 34.7695312 65.6923828 32.0273438 67.2802734 30.328125 69.7646484 30.328125zM69.7646484 31.8808594C68.3935547 31.8808594 67.5029297 33 67.5029297 34.7695312 67.5029297 36.5332031 68.3759766 37.6640625 69.7646484 37.6640625 71.1416016 37.6640625 72.0205078 36.5332031 72.0205078 34.7695312 72.0205078 33 71.1416016 31.8808594 69.7646484 31.8808594z"/>
      </g>
    </g>
    <g transform="translate(253)">
      <rect width="93" height="64" x="5" fill="none"/>
      <g fill="#FFFFFF" transform="translate(0 8)">
        <path d="M22.9101562 9.77441406L22.9101562 9.78515625 24.3388672 9.78515625 24.3388672 9.77441406C24.3603516 7.81933594 25.7460938 6.46582031 27.7441406 6.46582031 29.6455078 6.46582031 31.1171875 7.80859375 31.1171875 9.53808594 31.1171875 10.8701172 30.5693359 11.7939453 28.4101562 14.1142578L22.9960938 19.96875 22.9960938 21 32.9755859 21 32.9755859 19.6679688 25.1123047 19.6679688 25.1123047 19.5390625 29.3017578 15.0703125C31.8476562 12.3525391 32.5888672 11.0957031 32.5888672 9.484375 32.5888672 7.04589844 30.5048828 5.17675781 27.7763672 5.17675781 24.9726562 5.17675781 22.9316406 7.09960938 22.9101562 9.77441406zM42.9765625 21L42.9765625 17.4980469 35.1884766 17.4980469 35.1884766 16.1552734C36.5742188 13.8134766 38.4863281 10.8378906 42.2998047 5.47753906L44.4052734 5.47753906 44.4052734 16.1767578 46.7255859 16.1767578 46.7255859 17.4980469 44.4052734 17.4980469 44.4052734 21 42.9765625 21zM36.7246094 16.0908203L36.7246094 16.1875 42.9765625 16.1875 42.9765625 6.88476562 42.8798828 6.88476562C39.9257812 10.9130859 38.3896484 13.3193359 36.7246094 16.0908203zM54.9003906 21.3222656C51.4521484 21.3222656 49.421875 18.3251953 49.421875 13.2441406 49.421875 8.1953125 51.4736328 5.17675781 54.9003906 5.17675781 58.3056641 5.17675781 60.3466797 8.20605469 60.3466797 13.265625 60.3466797 18.3359375 58.3271484 21.3222656 54.9003906 21.3222656zM54.9003906 20.0332031C57.4140625 20.0332031 58.875 17.5410156 58.875 13.2441406 58.875 8.96875 57.4033203 6.4765625 54.9003906 6.4765625 52.3867188 6.4765625 50.9042969 8.99023438 50.9042969 13.2441406 50.9042969 17.5410156 52.3759766 20.0332031 54.9003906 20.0332031zM63.5527344 21L63.5527344 17.9482422 66.6728516 17.9482422 66.6728516 17.1669922 63.5527344 17.1669922 63.5527344 14.7451172 66.9511719 14.7451172 66.9511719 13.9541016 62.6738281 13.9541016 62.6738281 21 63.5527344 21zM68.8964844 13.9541016L71.5576172 13.9541016C72.890625 13.9541016 73.8134766 14.8916016 73.8134766 16.234375 73.8134766 17.5527344 72.8710938 18.4853516 71.5478516 18.4853516L69.7753906 18.4853516 69.7753906 21 68.8964844 21 68.8964844 13.9541016zM69.7753906 14.7353516L69.7753906 17.7041016 71.328125 17.7041016C72.3291016 17.7041016 72.9101562 17.1669922 72.9101562 16.234375 72.9101562 15.2675781 72.3486328 14.7353516 71.328125 14.7353516L69.7753906 14.7353516zM75.4121094 19.1591797C75.5048828 20.375 76.5351562 21.1660156 78.0292969 21.1660156 79.640625 21.1660156 80.6611328 20.3408203 80.6611328 19.046875 80.6611328 18.0117188 80.0751953 17.4453125 78.6152344 17.0791016L77.8779297 16.8837891C76.90625 16.6347656 76.5205078 16.3173828 76.5205078 15.765625 76.5205078 15.0527344 77.140625 14.5839844 78.078125 14.5839844 78.9570312 14.5839844 79.5527344 15.0136719 79.6748047 15.7363281L80.5585938 15.7363281C80.4853516 14.5986328 79.4697266 13.7880859 78.1074219 13.7880859 76.6181641 13.7880859 75.6171875 14.5986328 75.6171875 15.7949219 75.6171875 16.7958984 76.1689453 17.3720703 77.4433594 17.6943359L78.3466797 17.9287109C79.3183594 18.1728516 79.7578125 18.5537109 79.7578125 19.1542969 79.7578125 19.8525391 79.0595703 20.3652344 78.1123047 20.3652344 77.1113281 20.3652344 76.4082031 19.8964844 76.3007812 19.1591797L75.4121094 19.1591797zM3.32324219 30.5449219L1.55371094 30.5449219 1.55371094 36.0820312C1.55371094 37.9570312 2.93066406 39.2167969 5.09277344 39.2167969 7.26074219 39.2167969 8.63769531 37.9570312 8.63769531 36.0820312L8.63769531 30.5449219 6.86816406 30.5449219 6.86816406 35.9003906C6.86816406 36.9667969 6.22949219 37.6464844 5.09277344 37.6464844 3.96191406 37.6464844 3.32324219 36.9667969 3.32324219 35.9003906L3.32324219 30.5449219zM18.2314453 37.4589844L14.4697266 37.4589844 14.4697266 30.5449219 12.7001953 30.5449219 12.7001953 39 18.2314453 39 18.2314453 37.4589844zM24.5439453 39L24.5439453 32.0566406 27.0810547 32.0566406 27.0810547 30.5449219 20.2373047 30.5449219 20.2373047 32.0566406 22.7744141 32.0566406 22.7744141 39 24.5439453 39zM32.4150391 31.9746094L32.4150391 34.5761719 33.9677734 34.5761719C34.8583984 34.5761719 35.3798828 34.0957031 35.3798828 33.28125 35.3798828 32.4785156 34.8291016 31.9746094 33.9501953 31.9746094L32.4150391 31.9746094zM32.4150391 35.9355469L32.4150391 39 30.6455078 39 30.6455078 30.5449219 34.1962891 30.5449219C36.0537109 30.5449219 37.1962891 31.5761719 37.1962891 33.2578125 37.1962891 34.3359375 36.6337891 35.2734375 35.6611328 35.6601562L37.4423828 39 35.4384766 39 33.8623047 35.9355469 32.4150391 35.9355469zM46.4091797 39L45.7705078 36.984375 42.7998047 36.984375 42.1494141 39 40.3740234 39 43.3095703 30.5449219 45.3896484 30.5449219 48.3251953 39 46.4091797 39zM44.2412109 32.3027344L43.1806641 35.6191406 45.3955078 35.6191406 44.3466797 32.3027344 44.2412109 32.3027344zM55.2529297 36.3867188L55.2529297 34.7871094 51.4033203 34.7871094 51.4033203 36.3867188 55.2529297 36.3867188zM58.8759766 36.6503906C58.9404297 38.2265625 60.2470703 39.2167969 62.2626953 39.2167969 64.3837891 39.2167969 65.6904297 38.1738281 65.6904297 36.46875 65.6904297 35.15625 64.9580078 34.4238281 63.2587891 34.0664062L62.2392578 33.8496094C61.2490234 33.6386719 60.8447266 33.3398438 60.8447266 32.8183594 60.8447266 32.1738281 61.4306641 31.7636719 62.3154297 31.7636719 63.1708984 31.7636719 63.7919922 32.2089844 63.8740234 32.8769531L65.5380859 32.8769531C65.4853516 31.3710938 64.1669922 30.328125 62.3037109 30.328125 60.3525391 30.328125 59.0693359 31.3769531 59.0693359 32.9707031 59.0693359 34.2597656 59.8251953 35.0625 61.3662109 35.3847656L62.4677734 35.6191406C63.5048828 35.8417969 63.9267578 36.1523438 63.9267578 36.6914062 63.9267578 37.3300781 63.2763672 37.7753906 62.3564453 37.7753906 61.3603516 37.7753906 60.6689453 37.3359375 60.5869141 36.6503906L58.8759766 36.6503906zM74.8916016 37.4589844L71.1298828 37.4589844 71.1298828 30.5449219 69.3603516 30.5449219 69.3603516 39 74.8916016 39 74.8916016 37.4589844zM81.9599609 30.328125C84.4560547 30.328125 86.0205078 32.0332031 86.0205078 34.7695312 86.0205078 37.5117188 84.4619141 39.2167969 81.9599609 39.2167969 79.4521484 39.2167969 77.8876953 37.5117188 77.8876953 34.7695312 77.8876953 32.0273438 79.4755859 30.328125 81.9599609 30.328125zM81.9599609 31.8808594C80.5888672 31.8808594 79.6982422 33 79.6982422 34.7695312 79.6982422 36.5332031 80.5712891 37.6640625 81.9599609 37.6640625 83.3369141 37.6640625 84.2158203 36.5332031 84.2158203 34.7695312 84.2158203 33 83.3369141 31.8808594 81.9599609 31.8808594zM94.3837891 33.4042969L94.4775391 33.4042969 96.0771484 39 97.7353516 39 99.9794922 30.5449219 98.1513672 30.5449219 96.8447266 36.5039062 96.7509766 36.5039062 95.1806641 30.5449219 93.6865234 30.5449219 92.1455078 36.5039062 92.0517578 36.5039062 90.7333984 30.5449219 88.8935547 30.5449219 91.1318359 39 92.8017578 39 94.3837891 33.4042969z"/>
      </g>
    </g>
    <g transform="translate(156 74)">
      <path stroke="#FFFFFF" stroke-width="6" d="M32,61 C48.0162577,61 61,48.0162577 61,32 C61,15.9837423 48.0162577,3 32,3 C15.9837423,3 3,15.9837423 3,32 C3,48.0162577 15.9837423,61 32,61 Z" stroke-dasharray="1.036 1.036"/>
      <path fill="#FF1A1A" d="M32,56 C45.254834,56 56,45.254834 56,32 C56,18.745166 45.254834,8 32,8 C18.745166,8 8,18.745166 8,32 C8,45.254834 18.745166,56 32,56 Z"/>
    </g>
    <g transform="translate(244 85)">
      <rect width="42" height="42" fill="none"/>
      <path stroke="#FFFFFF" stroke-width="2.313" d="M23.6769219,7.625 L13.6377537,21.622591 C13.1710697,22.2732875 13.4324335,22.9166141 14.2197206,23.0591742 L20.0661503,24.1178319 C20.4573475,24.188669 20.7356587,24.574692 20.6901788,24.9596966 L19.3232522,36.53125 L29.3624204,22.533659 C29.8291044,21.8829625 29.5671551,21.2491915 28.7890628,21.1200376 L22.2126452,20.0284322 C21.8191102,19.9631102 21.5560843,19.594131 21.626532,19.1965534 L23.6769219,7.625 Z" stroke-linecap="round" stroke-linejoin="round"/>
    </g>
    <g transform="translate(90 85)">
      <rect width="42" height="42" fill="none"/>
      <g stroke="#FFFFFF" stroke-width="2" transform="translate(9 9)" stroke-linecap="round" stroke-linejoin="round">
        <rect width="12.5" height="12.5" x="10.417" y="2.083" rx="2.083"/>
        <rect width="12.5" height="12.5" x="6.25" y="6.25" rx="2.083" opacity=".6"/>
        <rect width="12.5" height="12.5" x="2.083" y="10.417" rx="2.083" opacity=".3"/>
      </g>
    </g>
    <g transform="translate(309 85)">
      <rect width="42" height="42" fill="none"/>
      <g stroke="#FFFFFF" stroke-width="2.24" transform="translate(7 10)" stroke-linecap="round" stroke-linejoin="round">
        <path d="M20.610625,4.73515626 L18.589375,0.764843743 L18.589375,0.764843743 C18.3504527,0.295532047 17.8683749,1.67961679e-15 17.3417466,1.77635684e-15 L10.6582534,0 L10.6582534,1.11022302e-15 C10.1316251,1.20696307e-15 9.64954732,0.295532047 9.410625,0.764843743 L7.389375,4.73515626 L7.389375,4.73515626 C7.15045268,5.20446795 6.66837491,5.5 6.14174663,5.5 L2.8,5.5 L2.8,5.5 C1.2536027,5.5 -1.8937905e-16,6.7536027 0,8.3 L0,20.6 L0,20.6 C9.46895252e-17,21.3731986 0.62680135,22 1.4,22 L26.6,22 L26.6,22 C27.3731986,22 28,21.3731986 28,20.6 L28,8.3 L28,8.3 C28,6.7536027 26.7463973,5.5 25.2,5.5 L21.8582534,5.5 L21.8582534,5.5 C21.3316251,5.5 20.8495473,5.20446795 20.610625,4.73515626 Z"/>
        <g transform="translate(6.72 7.15)">
          <path d="M0 4.52928143L1.72642105 6.99697429 3.71122807 4.71573143M1.71929825 6.96562429C.905578947 4.06327429 2.94933333 1.23163857 5.7785614.589788571 7.73340351.145938571 9.69094737.81136 10.9349825 2.15964571M14.5412842 7.08623929L12.8158456 4.61854643 10.8298105 6.900025M12.81 4.63794571C13.3267719 7.25838143 11.3844561 9.82861 8.76129825 10.4235529 6.9317193 10.8393529 5.09698246 10.2816529 3.84950877 9.10166714"/>
        </g>
      </g>
    </g>
  </g>
</svg>
