<?xml version="1.0" encoding="utf-8"?>
<!-- Generator: Adobe Illustrator 16.0.0, SVG Export Plug-In . SVG Version: 6.00 Build 0)  -->
<!DOCTYPE svg PUBLIC "-//W3C//DTD SVG 1.1//EN" "http://www.w3.org/Graphics/SVG/1.1/DTD/svg11.dtd">
<svg version="1.1" id="Layer_1" xmlns="http://www.w3.org/2000/svg" xmlns:xlink="http://www.w3.org/1999/xlink" x="0px" y="0px"
	 width="975px" height="177px" viewBox="0 0 975 177" enable-background="new 0 0 975 177" xml:space="preserve">
<text transform="matrix(1 0 0 1 -8.0713 110.959)" font-family="'Frontage-Bold'" font-size="130" letter-spacing="-31">DEFINE:</text>
<g>
	<path fill="none" d="M934.044,120.799c-0.512,0-1.36-0.17-1.701-0.34c-9.18-3.91-11.899-10.879-11.899-17
		c0-2.719,0.512-5.439,1.19-7.479c3.229-9.351,5.779-14.11,8.5-20.061c0.51-1.189,0.85-2.04,0.85-2.55c0-0.68-0.34-1.02-1.02-1.02
		c-3.74,0-19.211,13.77-22.439,23.459l-2.551,7.48c-1.699,5.27-7.311,8.67-10.88,8.67c-1.7,0-3.06-0.852-3.06-2.891
		c0-0.682,0.17-1.359,0.51-2.381l1.771-5.098c-5.371,4.762-12.363,9.945-18.261,14.109c-2.521,9.787-5.042,20.092-6.999,29.561
		c61.352-2.525,74.831-15.395,81.726-26.076c0.962-1.699,1.682-3.398,1.682-4.42c0-1.529-1.2-2.039-2.4-2.039
		c-2.399,0-5.762,1.869-10.803,6.289c-0.531,0.471-1.286,0.832-2.097,1.066C935.651,120.525,934.917,120.799,934.044,120.799z"/>
	<path fill="none" d="M792.948,55.351c-1.7,0-4.761,2.89-4.761,5.95c0,1.87,0.341,2.89,1.53,5.1c2.38-3.399,4.25-6.8,4.42-9.18
		C794.138,56.029,793.798,55.351,792.948,55.351z"/>
	<path fill="none" d="M779.858,103.629c0,1.531,1.529,3.061,4.25,3.061c2.89,0,5.779-1.869,7.989-4.25
		c-2.72-0.68-5.271-1.359-7.989-1.359C781.048,101.08,779.858,102.439,779.858,103.629z"/>
	<path fill="none" d="M854.315,132.699c-3.462,3.551-6.356,8.168-8.344,13.004c3.751-0.004,7.363-0.041,10.839-0.107
		c1.306-6.553,2.586-13.02,3.795-18.846C858.226,128.789,856.186,130.66,854.315,132.699z"/>
	<path d="M724.271,52.8c0.34-2.72,0.51-5.271,0.51-7.82c0-26.35-20.399-43.859-47.26-43.859c-27.71,0-56.27,16.49-56.27,41.479
		c0,12.07,8.67,18.36,17.85,18.36c6.801,0,9.18-1.87,9.18-3.57c0-4.42-12.409-0.34-12.409-14.79
		c0-22.779,23.801-35.869,39.949-35.869c20.061,0,32.641,16.149,32.641,35.869c0,2.38-0.17,4.76-0.511,7.14
		c-5.608,38.93-26.858,67.148-51.34,67.148c-17.34,0-24.648-5.1-24.648-12.75c0-6.799,7.14-9.688,11.05-10.029l-3.23,9.352
		c-0.34,0.85-0.51,1.699-0.51,2.379c0,2.041,1.53,3.061,3.57,3.061c3.74,0,10.029-3.398,11.729-8.67l0.681-2.039
		c2.89,2.379,4.25,4.25,4.25,6.629c0,1.189,0.51,2.891,2.72,2.891c2.72,0,5.27-2.719,5.27-6.629s-2.55-8.84-9.35-11.391l23.63-68.34
		c0.34-0.85,0.34-1.529,0.34-2.21c0-2.21-1.358-3.229-3.569-3.229c-3.91,0-9.859,3.57-11.561,8.67l-21.93,63.238
		c-11.561,0.511-26.86,5.951-26.86,18.021c0,9.52,10.2,18.189,32.641,18.189C683.81,124.029,718.149,95.129,724.271,52.8z"/>
	<path display="none" d="M835.446,51.271c5.61,0,10.371-5.1,10.371-9.689c0-4.08-3.061-6.29-6.801-6.29
		c-5.27,0-10.539,4.76-10.539,9.689C828.478,48.55,831.536,51.271,835.446,51.271z"/>
	<path d="M844.456,175.879c4.367,0,8.994-2.178,13.004-6.268c-6.983,1.072-14.121,1.977-21.359,2.715
		C838.157,174.504,840.919,175.879,844.456,175.879z"/>
	<path d="M845.972,145.83c1.986-4.836,4.882-9.518,8.344-13.066c1.87-2.041,3.91-3.943,6.29-5.98
		c-1.209,5.824-2.489,12.275-3.795,18.828c3.919-0.072,7.662-0.193,11.246-0.342c1.957-9.469,4.478-19.777,6.999-29.564
		c5.896-4.164,12.891-9.35,18.261-14.111l-1.771,5.098c-0.34,1.02-0.511,1.699-0.511,2.379c0,2.039,1.359,2.889,3.061,2.889
		c3.569,0,9.181-3.4,10.88-8.67l2.551-7.479c3.229-9.69,18.699-23.46,22.439-23.46c0.68,0,1.021,0.34,1.021,1.02
		c0,0.51-0.341,1.359-0.851,2.55c-2.721,5.95-5.271,10.71-8.5,20.06c-0.68,2.041-1.19,4.762-1.19,7.48
		c0,6.119,2.721,13.09,11.899,17c0.341,0.17,1.19,0.34,1.701,0.34c0.873,0,1.606-0.273,2.12-0.719
		c-0.653,0.188-1.342,0.295-1.984,0.295c-1.439,0-2.641-0.51-2.641-1.871c0-0.945,0.842-2.336,2.878-4.16
		c-1.255-1.916-2.244-4.588-2.244-8.166c0-2.549,0.511-5.609,1.701-8.67c3.229-8.669,7.309-18.698,9.858-24.139
		c1.529-3.229,2.381-5.779,2.381-7.819c0-3.061-2.041-4.59-4.932-4.59c-6.799,0-19.039,7.14-27.539,16.829l3.91-11.39
		c0.34-1.02,0.51-1.87,0.51-2.55c0-2.04-1.188-2.89-2.89-2.89c-8.841,0-16.49,6.8-16.49,9.35c0,1.189,0.851,1.87,1.87,1.87
		s1.53-0.34,1.87-0.34c0.51,0,0.68,0.34,0.68,0.68c0,0.51-0.17,1.359-0.51,2.379l-5.258,15.127
		c-0.062,0.059-0.118,0.109-0.182,0.174c-5.438,6.119-13.26,11.898-19.38,16.148c1.87-6.461,3.569-12.58,5.44-17.68
		c0.34-0.851,0.51-1.699,0.51-2.38c0-2.04-1.36-2.89-3.061-2.89c-3.57,0-9.011,3.398-10.709,8.499
		c-3.23,7.48-8.671,12.58-12.41,12.58c-5.101,0-6.29-6.459-6.29-9.689c0-8.5,7.648-27.369,21.079-27.369
		c3.569,0,6.971,1.359,6.971,4.76c0,5.27-5.438,4.08-5.438,6.29c0,2.211,3.738,2.891,6.289,2.891s10.199-1.7,10.199-10.37
		c0-6.8-6.8-10.029-15.13-10.029c-18.434,0-35.235,18.006-36.002,34.371c-5.938,5.98-10.581,8.809-12.617,8.809
		c-1.188,0-1.698-0.85-1.698-2.211c0-0.85,0.34-2.209,0.68-3.398c2.721-9.18,6.8-18.19,10.029-25.16
		c1.87-4.08,3.739-7.649,3.739-9.859c0-1.53-1.02-2.55-3.398-2.55c-8.67,0-17.682,6.289-17.682,9.689c0,1.19,1.191,1.7,2.382,1.7
		c0.51,0,1.02-0.17,1.528-0.17c0.511,0,0.852,0.17,0.852,0.68c0,0.51-0.341,1.19-0.852,2.38c-1.446,3.027-4.317,8.604-6.727,15.071
		c-4.193,4.834-6.907,6.182-11.293,6.35c0.34-1.191,0.511-3.4,0.511-4.25c0-7.991-6.46-15.131-11.39-21.25
		c3.909-4.93,9.52-12.409,9.52-17.68c0-3.74-2.21-5.27-5.27-5.27c-7.312,0-18.7,8.67-18.7,18.699c0,3.57,1.529,6.97,3.398,9.69
		c-3.568,4.59-7.818,10.028-10.879,13.6c-0.006,0.006-0.011,0.014-0.017,0.02c-7.985,9.334-16.987,13.41-24.122,13.41
		c-7.311,0-12.41-4.25-12.41-12.07c0-11.56,8.33-24.649,15.641-24.649c2.381,0,3.91,1.53,3.91,4.76c0,4.591-3.57,12.24-14.28,20.741
		c-1.699,1.359-2.38,2.549-2.38,3.568c0,1.189,1.021,2.041,2.38,2.041c0.512,0,1.19-0.17,1.87-0.512
		c11.9-5.439,24.649-16.999,24.649-26.179c0-5.27-4.079-10.369-12.579-10.369c-18.871,0-31.62,17.51-31.62,32.978
		c0,10.711,8.329,18.021,19.38,18.021c11.391,0,23.459-6.801,31.959-16.66c0.022-0.027,0.041-0.053,0.062-0.08l11.666-14.2
		c4.08,4.931,8.33,9.52,8.67,14.79c-1.7-0.17-4.08-0.34-5.95-0.34c-11.56,0-17.85,4.25-17.85,8.84c0,4.25,5.609,7.65,11.729,7.65
		c6.801,0,13.771-2.041,18.36-7.48c0,0,1.021,0.17,1.529,0.17c3.329,0,6.744-0.922,10.647-4.033
		c-0.063,0.631-0.108,1.246-0.108,1.824c0,5.779,2.892,9.52,9.181,9.52c4.618,0,11.284-3.395,18.409-10.072
		c2.055,6.002,7.43,10.072,13.55,10.072c4.08,0,8.159-1.869,11.729-5.1l-2.381,9.646c-13.533,9.023-23.497,19.451-28.279,29.451
		h10.418C845.407,145.959,845.686,145.83,845.972,145.83z M788.188,61.3c0-3.061,3.061-5.95,4.761-5.95
		c0.851,0,1.189,0.68,1.189,1.87c-0.17,2.38-2.04,5.78-4.42,9.18C788.528,64.189,788.188,63.17,788.188,61.3z M784.108,106.689
		c-2.721,0-4.25-1.529-4.25-3.061c0-1.189,1.189-2.551,4.25-2.551c2.72,0,5.271,0.68,7.989,1.359
		C789.888,104.818,786.997,106.689,784.108,106.689z"/>
	<path display="none" d="M843.096,158.879c0,7.141,2.89,9.859,5.44,9.859c2.89,0,4.59-5.27,6.119-12.41
		c0.722-3.543,1.44-7.15,2.154-10.732c-3.476,0.066-7.088,0.104-10.839,0.107C844.153,150.129,843.096,154.734,843.096,158.879z"/>
	<path d="M868.057,145.262c-3.584,0.146-7.327,0.26-11.246,0.334c-0.714,3.582-1.434,7.189-2.155,10.732
		c-1.528,7.141-3.229,12.41-6.119,12.41c-2.551,0-5.439-2.721-5.439-9.859c0-4.145,1.058-8.623,2.876-13.049
		c-0.286,0-0.563,0.129-0.853,0.129h-10.416c-2.063,4-3.168,8.691-3.168,13.047c0,5.1,1.48,10.121,4.564,13.385
		c7.238-0.738,14.376-1.676,21.359-2.748c4.418-4.506,8.082-11.354,9.774-20.268C867.496,148.029,867.771,146.646,868.057,145.262z"
		/>
	<g>
		<path d="M830.632,145.959H636.756c-3.12,0-4.321,1.062-4.321,2.254c0,0.68,0.48,1.465,1.44,1.635
			c21.845,6.631,31.927,13.398,31.927,17.988c0,1.871-2.4,2.967-2.4,5.008c0,1.189,0.961,2.115,3.121,2.115h120.745
			c14.767,0,29.578-0.744,44.041-2.08c-2.358-3.717-3.521-8.531-3.521-13.402C827.786,154.996,828.773,150.371,830.632,145.959z"/>
		<path d="M955.784,104.564c-5.763,0-12.964,2.721-20.886,9.352c-0.174,0.146-0.323,0.287-0.481,0.43
			c0.475,0.725,0.982,1.35,1.496,1.863c0.68,0.68,1.021,1.359,1.021,2.211c0,0.66-0.285,1.238-0.771,1.66
			c0.811-0.232,1.564-0.596,2.097-1.064c5.041-4.42,8.401-6.291,10.803-6.291c1.2,0,2.4,0.51,2.4,2.041
			c0,1.021-0.72,2.721-1.682,4.42c-6.795,10.527-19.989,23.182-79.11,25.959c-0.201,1-0.398,1.994-0.588,2.971
			c-1.649,8.688-4.883,15.709-8.89,20.9c48.354-7.902,88.763-23.92,103.472-47.961c1.921-3.059,2.642-5.949,2.642-8.33
			C967.307,107.795,963.706,104.564,955.784,104.564z"/>
	</g>
	<path d="M931.539,118.506c0,1.359,1.2,1.869,2.641,1.869c0.644,0,1.331-0.105,1.984-0.295c0.483-0.422,0.77-1,0.77-1.66
		c0-0.852-0.341-1.531-1.021-2.211c-0.514-0.514-1.021-1.141-1.496-1.863C932.381,116.168,931.539,117.561,931.539,118.506z"/>
</g>
</svg>
